#Comment line ignore any data following # character 
#Hierarchical Translation and Rotation (.htr) file 
[Header]	
#Header keywords are followed by a single value 
FileType HTR		#Single word string
DataType HTRS		#Translation followed by rotation and scale data
FileVersion 1		#integer
NumSegments 84		#integer
NumFrames 2		#integer
DataFrameRate 30		#integer, data frame rate in this file
EulerRotationOrder ZYX
CalibrationUnits mm
RotationUnits Degrees
GlobalAxisofGravity Y
BoneLengthAxis Y
ScaleFactor 1.00
[SegmentNames&Hierarchy]
#CHILD	PARENT
MASTER GLOBAL
root MASTER
chest root
L_mid_tent01 root
R_mid_tent01 root
spine01 root
Bip01_Neck chest
L_humerus chest
R_humerus chest
weapon_bone chest
Bip01_Head Bip01_Neck
eye_left_bone Bip01_Head
eye_right_bone Bip01_Head
L_forearm L_humerus
L_front_hand L_forearm
L_weapon_bone L_forearm
L_front_hand01_01 L_front_hand
L_front_hand02_01 L_front_hand
L_front_hand03_01 L_front_hand
L_front_hand01_02 L_front_hand01_01
L_front_hand02_02 L_front_hand02_01
L_front_hand03_02 L_front_hand03_01
R_forearm R_humerus
R_front_hand R_forearm
R_weapon_bone R_forearm
R_front_hand01_01 R_front_hand
R_front_hand02_01 R_front_hand
R_front_hand03_01 R_front_hand
R_front_hand01_02 R_front_hand01_01
R_front_hand02_02 R_front_hand02_01
R_front_hand03_02 R_front_hand03_01
null_rope01_connect L_mid_tent01
Rope1_Seg01 null_rope01_connect
Rope1_Seg02 Rope1_Seg01
Rope1_Seg03 Rope1_Seg02
Rope1_Seg04 Rope1_Seg03
Rope1_Seg05 Rope1_Seg04
Rope1_Seg06 Rope1_Seg05
Rope1_Seg07 Rope1_Seg06
Rope1_Seg09 Rope1_Seg07
L_mid_hand01 Rope1_Seg09
L_mid_hand02 Rope1_Seg09
L_mid_hand03 Rope1_Seg09
null_rope02_connect R_mid_tent01
Rope2_Seg01 null_rope02_connect
Rope2_Seg02 Rope2_Seg01
Rope2_Seg03 Rope2_Seg02
Rope2_Seg04 Rope2_Seg03
Rope2_Seg05 Rope2_Seg04
Rope2_Seg06 Rope2_Seg05
Rope2_Seg07 Rope2_Seg06
Rope2_Seg09 Rope2_Seg07
R_mid_hand01 Rope2_Seg09
R_mid_hand02 Rope2_Seg09
R_mid_hand03 Rope2_Seg09
spine02 spine01
spine03 spine02
pelvis spine03
null_rope03_connect pelvis
null_rope04_connect pelvis
Rope3_Seg01 null_rope03_connect
Rope3_Seg02 Rope3_Seg01
Rope3_Seg03 Rope3_Seg02
Rope3_Seg04 Rope3_Seg03
Rope3_Seg05 Rope3_Seg04
Rope3_Seg06 Rope3_Seg05
Rope3_Seg07 Rope3_Seg06
Rope3_Seg08 Rope3_Seg07
Rope3_Seg09 Rope3_Seg08
R_rear_hand01 Rope3_Seg09
R_rear_hand02 Rope3_Seg09
R_rear_hand03 Rope3_Seg09
Rope4_Seg01 null_rope04_connect
Rope4_Seg02 Rope4_Seg01
Rope4_Seg03 Rope4_Seg02
Rope4_Seg04 Rope4_Seg03
Rope4_Seg05 Rope4_Seg04
Rope4_Seg06 Rope4_Seg05
Rope4_Seg07 Rope4_Seg06
Rope4_Seg08 Rope4_Seg07
Rope4_Seg09 Rope4_Seg08
L_rear_hand01 Rope4_Seg09
L_rear_hand02 Rope4_Seg09
L_rear_hand03 Rope4_Seg09
[BasePosition]
#SegmentName Tx, Ty, Tz, Rx, Ry, Rz, BoneLength
MASTER 0.000000 0.000000 0.000000 -90.000000 0.000000 0.000000 10.000000 
root 0.000000 0.000000 0.000000 0.000000 0.000000 0.000000 10.000000 
chest 0.000000 0.000000 0.000000 0.000000 0.000000 0.000000 10.000000 
L_mid_tent01 0.000000 0.000000 0.000000 0.000000 0.000000 0.000000 10.000000 
R_mid_tent01 0.000000 0.000000 0.000000 0.000000 0.000000 0.000000 10.000000 
spine01 0.000000 0.000000 0.000000 0.000000 0.000000 0.000000 10.000000 
Bip01_Neck 0.000000 0.000000 0.000000 0.000000 0.000000 0.000000 10.000000 
L_humerus 0.000000 0.000000 0.000000 0.000000 0.000000 0.000000 10.000000 
R_humerus 0.000000 0.000000 0.000000 0.000000 0.000000 0.000000 10.000000 
weapon_bone 0.000000 0.000000 0.000000 0.000000 0.000000 0.000000 10.000000 
Bip01_Head 0.000000 0.000000 0.000000 0.000000 0.000000 0.000000 10.000000 
eye_left_bone 0.000000 0.000000 0.000000 0.000000 0.000000 0.000000 10.000000 
eye_right_bone 0.000000 0.000000 0.000000 0.000000 0.000000 0.000000 10.000000 
L_forearm 0.000000 0.000000 0.000000 0.000000 0.000000 0.000000 10.000000 
L_front_hand 0.000000 0.000000 0.000000 0.000000 0.000000 0.000000 10.000000 
L_weapon_bone 0.000000 0.000000 0.000000 0.000000 0.000000 0.000000 10.000000 
L_front_hand01_01 0.000000 0.000000 0.000000 0.000000 0.000000 0.000000 10.000000 
L_front_hand02_01 0.000000 0.000000 0.000000 0.000000 0.000000 0.000000 10.000000 
L_front_hand03_01 0.000000 0.000000 0.000000 0.000000 0.000000 0.000000 10.000000 
L_front_hand01_02 0.000000 0.000000 0.000000 0.000000 0.000000 0.000000 10.000000 
L_front_hand02_02 0.000000 0.000000 0.000000 0.000000 0.000000 0.000000 10.000000 
L_front_hand03_02 0.000000 0.000000 0.000000 0.000000 0.000000 0.000000 10.000000 
R_forearm 0.000000 0.000000 0.000000 0.000000 0.000000 0.000000 10.000000 
R_front_hand 0.000000 0.000000 0.000000 0.000000 0.000000 0.000000 10.000000 
R_weapon_bone 0.000000 0.000000 0.000000 0.000000 0.000000 0.000000 10.000000 
R_front_hand01_01 0.000000 0.000000 0.000000 0.000000 0.000000 0.000000 10.000000 
R_front_hand02_01 0.000000 0.000000 0.000000 0.000000 0.000000 0.000000 10.000000 
R_front_hand03_01 0.000000 0.000000 0.000000 0.000000 0.000000 0.000000 10.000000 
R_front_hand01_02 0.000000 0.000000 0.000000 0.000000 0.000000 0.000000 10.000000 
R_front_hand02_02 0.000000 0.000000 0.000000 0.000000 0.000000 0.000000 10.000000 
R_front_hand03_02 0.000000 0.000000 0.000000 0.000000 0.000000 0.000000 10.000000 
null_rope01_connect 0.000000 0.000000 0.000000 0.000000 0.000000 0.000000 10.000000 
Rope1_Seg01 0.000000 0.000000 0.000000 0.000000 0.000000 0.000000 10.000000 
Rope1_Seg02 0.000000 0.000000 0.000000 0.000000 0.000000 0.000000 10.000000 
Rope1_Seg03 0.000000 0.000000 0.000000 0.000000 0.000000 0.000000 10.000000 
Rope1_Seg04 0.000000 0.000000 0.000000 0.000000 0.000000 0.000000 10.000000 
Rope1_Seg05 0.000000 0.000000 0.000000 0.000000 0.000000 0.000000 10.000000 
Rope1_Seg06 0.000000 0.000000 0.000000 0.000000 0.000000 0.000000 10.000000 
Rope1_Seg07 0.000000 0.000000 0.000000 0.000000 0.000000 0.000000 10.000000 
Rope1_Seg09 0.000000 0.000000 0.000000 0.000000 0.000000 0.000000 10.000000 
L_mid_hand01 0.000000 0.000000 0.000000 0.000000 0.000000 0.000000 10.000000 
L_mid_hand02 0.000000 0.000000 0.000000 0.000000 0.000000 0.000000 10.000000 
L_mid_hand03 0.000000 0.000000 0.000000 0.000000 0.000000 0.000000 10.000000 
null_rope02_connect 0.000000 0.000000 0.000000 0.000000 0.000000 0.000000 10.000000 
Rope2_Seg01 0.000000 0.000000 0.000000 0.000000 0.000000 0.000000 10.000000 
Rope2_Seg02 0.000000 0.000000 0.000000 0.000000 0.000000 0.000000 10.000000 
Rope2_Seg03 0.000000 0.000000 0.000000 0.000000 0.000000 0.000000 10.000000 
Rope2_Seg04 0.000000 0.000000 0.000000 0.000000 0.000000 0.000000 10.000000 
Rope2_Seg05 0.000000 0.000000 0.000000 0.000000 0.000000 0.000000 10.000000 
Rope2_Seg06 0.000000 0.000000 0.000000 0.000000 0.000000 0.000000 10.000000 
Rope2_Seg07 0.000000 0.000000 0.000000 0.000000 0.000000 0.000000 10.000000 
Rope2_Seg09 0.000000 0.000000 0.000000 0.000000 0.000000 0.000000 10.000000 
R_mid_hand01 0.000000 0.000000 0.000000 0.000000 0.000000 0.000000 10.000000 
R_mid_hand02 0.000000 0.000000 0.000000 0.000000 0.000000 0.000000 10.000000 
R_mid_hand03 0.000000 0.000000 0.000000 0.000000 0.000000 0.000000 10.000000 
spine02 0.000000 0.000000 0.000000 0.000000 0.000000 0.000000 10.000000 
spine03 0.000000 0.000000 0.000000 0.000000 0.000000 0.000000 10.000000 
pelvis 0.000000 0.000000 0.000000 0.000000 0.000000 0.000000 10.000000 
null_rope03_connect 0.000000 0.000000 0.000000 0.000000 0.000000 0.000000 10.000000 
null_rope04_connect 0.000000 0.000000 0.000000 0.000000 0.000000 0.000000 10.000000 
Rope3_Seg01 0.000000 0.000000 0.000000 0.000000 0.000000 0.000000 10.000000 
Rope3_Seg02 0.000000 0.000000 0.000000 0.000000 0.000000 0.000000 10.000000 
Rope3_Seg03 0.000000 0.000000 0.000000 0.000000 0.000000 0.000000 10.000000 
Rope3_Seg04 0.000000 0.000000 0.000000 0.000000 0.000000 0.000000 10.000000 
Rope3_Seg05 0.000000 0.000000 0.000000 0.000000 0.000000 0.000000 10.000000 
Rope3_Seg06 0.000000 0.000000 0.000000 0.000000 0.000000 0.000000 10.000000 
Rope3_Seg07 0.000000 0.000000 0.000000 0.000000 0.000000 0.000000 10.000000 
Rope3_Seg08 0.000000 0.000000 0.000000 0.000000 0.000000 0.000000 10.000000 
Rope3_Seg09 0.000000 0.000000 0.000000 0.000000 0.000000 0.000000 10.000000 
R_rear_hand01 0.000000 0.000000 0.000000 0.000000 0.000000 0.000000 10.000000 
R_rear_hand02 0.000000 0.000000 0.000000 0.000000 0.000000 0.000000 10.000000 
R_rear_hand03 0.000000 0.000000 0.000000 0.000000 0.000000 0.000000 10.000000 
Rope4_Seg01 0.000000 0.000000 0.000000 0.000000 0.000000 0.000000 10.000000 
Rope4_Seg02 0.000000 0.000000 0.000000 0.000000 0.000000 0.000000 10.000000 
Rope4_Seg03 0.000000 0.000000 0.000000 0.000000 0.000000 0.000000 10.000000 
Rope4_Seg04 0.000000 0.000000 0.000000 0.000000 0.000000 0.000000 10.000000 
Rope4_Seg05 0.000000 0.000000 0.000000 0.000000 0.000000 0.000000 10.000000 
Rope4_Seg06 0.000000 0.000000 0.000000 0.000000 0.000000 0.000000 10.000000 
Rope4_Seg07 0.000000 0.000000 0.000000 0.000000 0.000000 0.000000 10.000000 
Rope4_Seg08 0.000000 0.000000 0.000000 0.000000 0.000000 0.000000 10.000000 
Rope4_Seg09 0.000000 0.000000 0.000000 0.000000 0.000000 0.000000 10.000000 
L_rear_hand01 0.000000 0.000000 0.000000 0.000000 0.000000 0.000000 10.000000 
L_rear_hand02 0.000000 0.000000 0.000000 0.000000 0.000000 0.000000 10.000000 
L_rear_hand03 0.000000 0.000000 0.000000 0.000000 0.000000 0.000000 10.000000 
#Beginning of Data. Separated by tabs
#Fr	Tx	Ty	Tz	Rx	Ry	Rz	SF
[MASTER]
22 -0.001230 8558.087891 745.841797 0.001660 0.001660 0.001660 8590.527344
23 -0.001275 8878.244141 627.806763 0.001660 0.001660 0.001660 8900.414063
[root]
22 -34.132133 -58.255005 1502.470947 -91.166565 -24.521385 -94.344368 1503.987305
23 -32.339375 -59.373779 1502.381226 -92.539917 -23.326929 -93.830086 1503.901733
[chest]
22 -84.512650 -34.090519 0.000000 -1.753919 1.512669 177.437317 91.129311
23 -84.512650 -34.090519 0.000000 -1.797969 1.430650 175.047470 91.129311
[L_mid_tent01]
22 27.299461 22.179335 -249.918701 -16.673424 18.142992 32.764309 252.381729
23 27.299477 22.179346 -249.918701 -18.350664 19.385513 31.425589 252.381729
[R_mid_tent01]
22 23.228794 24.509907 226.238495 -165.656982 -12.144278 33.543327 228.744751
23 23.228794 24.509907 226.238495 -163.751755 -13.021829 32.182854 228.744751
[spine01]
22 -0.361383 -0.195265 0.000000 0.002033 0.001173 30.025759 0.410763
23 -0.361383 -0.195265 0.000000 0.002029 0.001180 29.644272 0.410763
[Bip01_Neck]
22 165.484543 71.581718 0.000119 176.643677 -1.657967 43.431911 180.302734
23 165.484543 71.581718 0.000119 176.643677 -1.657967 43.431911 180.302734
[L_humerus]
22 -13.983130 -135.272980 -120.471481 -6.833231 64.660011 83.043900 181.680161
23 -13.983130 -135.272980 -120.471481 -6.763256 64.902634 83.122719 181.680161
[R_humerus]
22 -13.983309 -135.273102 125.287651 25.927046 -65.476273 69.786179 184.909012
23 -13.983309 -135.273102 125.287651 26.032135 -65.750046 69.677452 184.909012
[weapon_bone]
22 235.964890 -300.705902 0.000000 0.000000 -89.951546 -128.212341 382.234833
23 235.964890 -300.705902 0.000000 0.000000 -89.951546 -128.212341 382.234833
[Bip01_Head]
22 213.381348 185.891251 9.507442 4.439822 -0.385179 -43.900673 283.156403
23 213.353256 185.970749 8.482816 4.441478 -0.144428 -43.899250 283.154907
[eye_left_bone]
22 -24.626970 125.451866 -64.772606 0.000000 -90.000000 -99.840431 143.318359
23 -24.626970 125.451866 -64.772606 0.000000 -90.000000 -99.840431 143.318359
[eye_right_bone]
22 -24.626970 125.451866 64.327362 0.000000 -89.965736 80.156380 143.117676
23 -24.626970 125.451866 64.327362 0.000000 -89.965736 80.156380 143.117676
[L_forearm]
22 322.776093 0.000000 -0.000119 0.000425 -0.002308 -110.845139 322.776093
23 322.776093 0.000000 -0.000119 0.000423 -0.002309 -110.756493 322.776093
[L_front_hand]
22 241.149185 -0.042021 -3.300071 -178.667953 -1.835447 -27.422350 241.171753
23 241.149185 -0.042021 -3.300071 -178.667953 -1.835447 -27.422342 241.171753
[L_weapon_bone]
22 156.183838 0.000000 0.000000 0.000014 0.000007 0.000001 156.183838
23 156.183838 0.000000 0.000000 0.000014 0.000007 0.000001 156.183838
[L_front_hand01_01]
22 86.095154 20.947098 -0.655860 -0.314053 -0.508434 69.417068 88.609184
23 86.095154 20.947098 -0.655860 -0.321505 -0.503456 70.187172 88.609184
[L_front_hand02_01]
22 86.935165 -11.437475 24.513514 145.968994 -56.908298 -51.478970 91.046425
23 86.935165 -11.437475 24.513514 146.961197 -57.331734 -52.661167 91.046425
[L_front_hand03_01]
22 86.637497 -14.123976 -20.424902 -146.056091 55.123112 -53.303532 90.126129
23 86.637497 -14.123976 -20.424902 -146.985443 55.548405 -54.432819 90.126129
[L_front_hand01_02]
22 71.020905 -0.000179 0.000030 0.000318 -0.002326 -105.579170 71.020905
23 71.020905 -0.000179 0.000030 0.000319 -0.002325 -105.617981 71.020905
[L_front_hand02_02]
22 71.020927 -0.000119 0.000060 0.000318 -0.002326 -105.579170 71.020927
23 71.020927 -0.000119 0.000060 0.000319 -0.002325 -105.617981 71.020927
[L_front_hand03_02]
22 71.020905 -0.000060 0.000060 0.000318 -0.002326 -105.579170 71.020905
23 71.020905 -0.000060 0.000060 0.000319 -0.002325 -105.617981 71.020905
[R_forearm]
22 322.776428 -0.000060 0.000030 0.201263 0.067706 -109.510582 322.776428
23 322.776428 -0.000060 0.000030 0.201319 0.067540 -109.415970 322.776428
[R_front_hand]
22 238.847015 -0.006795 2.210259 -2.635298 -10.645461 -26.312506 238.857239
23 238.847015 -0.006795 2.210259 -2.635298 -10.645461 -26.312506 238.857239
[R_weapon_bone]
22 155.664093 0.002503 -0.000030 0.003487 0.001180 -90.988930 155.664078
23 155.664093 0.002503 -0.000030 0.003487 0.001180 -90.988930 155.664078
[R_front_hand01_01]
22 87.624611 14.231146 22.918642 -146.552551 -57.155426 52.280727 91.683487
23 87.624611 14.231146 22.918642 -148.462082 -57.932716 54.541962 91.683487
[R_front_hand02_01]
22 89.356956 14.367283 -19.491137 146.998062 55.533039 54.685249 92.579636
23 89.356956 14.367283 -19.491137 148.801498 56.299915 56.856495 92.579636
[R_front_hand03_01]
22 87.286232 -22.307278 -0.143439 0.117983 -0.440813 -70.109169 90.091743
23 87.286232 -22.307278 -0.143439 0.131531 -0.433516 -71.547462 90.091743
[R_front_hand01_02]
22 71.020905 0.000060 0.000119 0.002323 -0.000334 106.381714 71.020905
23 71.020905 0.000060 0.000119 0.002323 -0.000334 106.381714 71.020905
[R_front_hand02_02]
22 71.020844 -0.000030 -0.000119 0.002323 -0.000334 106.381714 71.020836
23 71.020844 -0.000030 -0.000119 0.002323 -0.000334 106.381714 71.020836
[R_front_hand03_02]
22 71.020905 0.000000 0.000030 0.002323 -0.000334 106.381714 71.020905
23 71.020905 0.000000 0.000030 0.002323 -0.000334 106.381714 71.020905
[null_rope01_connect]
22 328.732483 0.000000 -0.000238 -136.203674 -61.596252 -145.450470 328.732483
23 328.732483 0.000000 -0.000238 -138.986191 -58.702991 -142.941299 328.732483
[Rope1_Seg01]
22 -0.000019 -0.000038 0.000076 97.621010 -0.251950 -152.378860 0.000087
23 -0.000018 -0.000036 0.000073 115.096268 11.971261 -163.636185 0.000083
[Rope1_Seg02]
22 139.999863 -0.000179 0.000000 -4.961128 4.391941 0.985409 139.999863
23 139.999863 -0.000179 0.000000 -3.308393 4.218502 -0.501458 139.999863
[Rope1_Seg03]
22 139.999924 0.000060 -0.000060 -5.448673 4.532150 0.910723 139.999924
23 139.999924 0.000060 -0.000060 -5.054050 5.467217 -0.492577 139.999924
[Rope1_Seg04]
22 139.999924 -0.000060 -0.000119 -4.810782 4.165618 0.118839 139.999924
23 139.999924 -0.000060 -0.000119 -7.412372 7.241022 -1.486035 139.999924
[Rope1_Seg05]
22 139.999832 0.000119 -0.000060 -18.805773 9.256409 11.640341 139.999832
23 139.999832 0.000119 -0.000060 -16.488689 8.135662 5.683275 139.999832
[Rope1_Seg06]
22 139.999954 0.000119 -0.000060 -16.209053 6.312551 22.768969 139.999954
23 139.999954 0.000119 -0.000060 -23.454662 9.714165 22.688044 139.999954
[Rope1_Seg07]
22 139.999985 0.000060 0.000000 -6.185404 0.040378 17.551823 139.999985
23 139.999985 0.000060 0.000000 -10.864842 0.984822 26.441088 139.999985
[Rope1_Seg09]
22 121.602913 0.000119 -0.000089 -89.793175 -1.359789 0.847147 121.602913
23 121.602913 0.000119 -0.000089 -89.793175 -1.359789 0.847147 121.602913
[L_mid_hand01]
22 103.859421 1.038730 8.195221 130.544373 -67.584534 -38.866943 104.187431
23 103.859421 1.038730 8.195221 130.544373 -67.584518 -38.866947 104.187431
[L_mid_hand02]
22 105.572853 -4.139662 -10.864139 -168.923172 43.409321 -73.498909 106.211075
23 105.572853 -4.139662 -10.864139 -168.923172 43.409309 -73.498886 106.211075
[L_mid_hand03]
22 104.641464 17.579376 -3.913581 -6.012627 17.808174 74.893669 106.179977
23 104.641464 17.579376 -3.913581 -6.012626 17.808172 74.893661 106.179977
[null_rope02_connect]
22 328.732849 0.000179 -0.000119 -162.483780 74.239441 -62.482811 328.732849
23 328.732849 0.000179 -0.000119 -161.614578 73.384247 -61.379086 328.732849
[Rope2_Seg01]
22 0.000057 0.000076 0.000000 -23.835699 1.456342 -21.891661 0.000095
23 0.000058 0.000073 0.000000 -42.466690 8.726576 -14.378939 0.000093
[Rope2_Seg02]
22 139.999741 -0.000060 -0.000119 39.444450 1.273674 -18.325138 139.999756
23 139.999741 -0.000060 -0.000119 16.042751 5.683507 -9.632345 139.999756
[Rope2_Seg03]
22 140.000107 0.000030 0.000000 43.299210 -15.510144 -23.079977 140.000107
23 140.000107 0.000030 0.000000 59.641022 4.887559 -19.519146 140.000107
[Rope2_Seg04]
22 139.999802 0.000000 -0.000060 13.782468 -25.319593 -7.248614 139.999802
23 139.999802 0.000000 -0.000060 53.213531 -26.238417 -29.025261 139.999802
[Rope2_Seg05]
22 139.999985 -0.000060 0.000119 -0.904432 2.090064 0.766744 139.999985
23 139.999985 -0.000060 0.000119 -0.669151 -0.388646 0.928808 139.999985
[Rope2_Seg06]
22 139.999893 -0.000030 -0.000119 -6.178820 14.867862 2.091961 139.999893
23 139.999893 -0.000030 -0.000119 -17.184914 23.119061 1.157394 139.999893
[Rope2_Seg07]
22 139.999893 0.000060 -0.000060 -4.028007 5.839867 1.703957 139.999893
23 139.999893 0.000060 -0.000060 -14.266010 8.144866 3.303908 139.999893
[Rope2_Seg09]
22 121.338966 0.000089 -0.000060 33.793236 -1.359788 -0.847141 121.338966
23 121.338966 0.000089 -0.000060 33.793236 -1.359788 -0.847141 121.338966
[R_mid_hand01]
22 104.680779 11.144459 -10.335981 -16.212065 45.237247 70.462852 105.778534
23 104.680779 11.144459 -10.335981 -16.212067 45.237247 70.462852 105.778534
[R_mid_hand02]
22 104.070427 2.443552 8.231699 49.067375 -67.749794 39.286476 104.424065
23 104.070427 2.443552 8.231699 49.067360 -67.749771 39.286446 104.424065
[R_mid_hand03]
22 106.028137 -11.221827 -5.996406 -177.101105 15.551026 -76.585571 106.788818
23 106.028137 -11.221827 -5.996406 -177.101105 15.551026 -76.585571 106.788818
[spine02]
22 129.756927 0.001550 0.000119 0.501516 -4.028656 -14.977407 129.756927
23 129.756927 0.001550 0.000119 0.492616 -4.029785 -14.863955 129.756927
[spine03]
22 78.614288 0.081558 -4.899001 1.982446 3.789320 17.757610 78.766823
23 78.614296 0.081562 -4.899000 1.976355 3.792477 17.678587 78.766830
[pelvis]
22 169.435242 0.051022 0.000000 -0.069455 -0.178080 16.703104 169.435257
23 169.435242 0.051022 0.000000 -0.069199 -0.178180 16.538204 169.435257
[null_rope03_connect]
22 -1.257226 -2.466202 137.391083 -87.475746 -85.383530 152.503738 137.418976
23 -1.257226 -2.466202 137.391083 -103.064781 -85.228088 167.359543 137.418976
[null_rope04_connect]
22 -1.259640 -2.480268 -137.844437 -87.475746 -85.383530 152.503738 137.872513
23 -1.259640 -2.480268 -137.844437 -103.064781 -85.228088 167.359543 137.872513
[Rope3_Seg01]
22 -0.000033 0.000000 -0.000076 -129.265137 2.216779 -60.243958 0.000083
23 -0.000033 0.000000 -0.000080 -124.870583 8.396260 -49.711273 0.000087
[Rope3_Seg02]
22 139.999924 -0.000119 0.000060 1.534574 -4.235116 4.351066 139.999924
23 139.999924 -0.000119 0.000060 3.097448 -6.127419 4.112628 139.999924
[Rope3_Seg03]
22 139.999924 -0.000119 0.000119 4.044950 -24.499254 16.175438 139.999924
23 139.999924 -0.000119 0.000119 7.554701 -18.276524 11.172821 139.999924
[Rope3_Seg04]
22 139.999924 0.000119 0.000000 4.128425 20.130312 22.503134 139.999924
23 139.999924 0.000119 0.000000 4.470191 -30.697834 31.868122 139.999924
[Rope3_Seg05]
22 139.999924 -0.000238 0.000060 9.531116 40.175510 -15.614006 139.999924
23 139.999924 -0.000238 0.000060 -28.994825 67.895020 -44.409370 139.999924
[Rope3_Seg06]
22 139.999893 -0.000119 -0.000060 2.227109 4.201172 -1.946241 139.999893
23 139.999893 -0.000119 -0.000060 4.720377 17.862204 -5.221335 139.999893
[Rope3_Seg07]
22 139.999771 0.000060 -0.000119 1.508844 2.188025 -1.122199 139.999771
23 139.999771 0.000060 -0.000119 2.372079 5.558989 -1.874193 139.999771
[Rope3_Seg08]
22 139.999985 -0.000060 0.000000 1.097926 1.185058 -0.649775 139.999985
23 139.999985 -0.000060 0.000000 1.464724 2.502177 -0.965713 139.999985
[Rope3_Seg09]
22 90.185997 -0.000179 -0.000060 89.793228 -1.359877 -0.847183 90.185997
23 90.185997 -0.000179 -0.000060 89.793228 -1.359877 -0.847183 90.185997
[R_rear_hand01]
22 103.366196 -6.073594 -10.757982 -177.714203 24.565960 -73.910950 104.101845
23 103.366196 -6.073594 -10.757982 -177.714203 24.565958 -73.910942 104.101845
[R_rear_hand02]
22 100.509819 12.039542 -7.992327 -12.874826 36.868481 72.167213 101.543350
23 100.509819 12.039542 -7.992327 -12.874831 36.868492 72.167213 101.543350
[R_rear_hand03]
22 101.539970 5.215704 5.435467 71.484581 -71.816628 21.513813 101.819031
23 101.539970 5.215704 5.435467 71.484581 -71.816643 21.513828 101.819031
[Rope4_Seg01]
22 0.000010 0.000038 -0.000114 46.400745 0.382750 -132.508224 0.000121
23 0.000010 0.000038 -0.000114 39.792763 11.031878 -136.462357 0.000121
[Rope4_Seg02]
22 139.999985 0.000060 0.000119 -2.350804 5.159571 -2.639778 139.999985
23 139.999985 0.000060 0.000119 -3.368586 4.440076 -4.883803 139.999985
[Rope4_Seg03]
22 139.999924 0.000000 -0.000238 -10.100636 20.226572 -16.046368 139.999924
23 139.999924 0.000000 -0.000238 -12.653305 16.231459 -20.222763 139.999924
[Rope4_Seg04]
22 139.999985 0.000000 0.000119 1.996809 19.913853 10.958878 139.999985
23 139.999985 0.000000 0.000119 -1.612452 15.089080 -1.713822 139.999985
[Rope4_Seg05]
22 139.999802 -0.000060 -0.000119 -12.795772 -30.827206 37.953438 139.999802
23 139.999802 -0.000060 -0.000119 -6.126683 -34.158092 53.496719 139.999802
[Rope4_Seg06]
22 139.999924 0.000000 0.000060 0.537176 -2.819911 3.377801 139.999924
23 139.999924 0.000000 0.000060 1.832115 -2.944059 6.078134 139.999924
[Rope4_Seg07]
22 139.999802 0.000000 0.000000 0.423339 -1.484051 1.816436 139.999802
23 139.999802 0.000000 0.000000 1.020301 -1.336398 3.022152 139.999802
[Rope4_Seg08]
22 139.999924 0.000000 0.000119 -1.276577 -0.808216 1.004852 139.999924
23 139.999924 0.000000 0.000119 -0.972482 -0.682075 1.614940 139.999924
[Rope4_Seg09]
22 90.185791 0.000060 0.000060 -135.617828 2.228885 0.850567 90.185791
23 90.185791 0.000060 0.000060 -135.617828 2.228885 0.850567 90.185791
[L_rear_hand01]
22 101.696655 -8.392275 -7.654577 -12.874829 -36.868488 107.832764 102.329041
23 101.696655 -8.392275 -7.654577 -12.874827 -36.868488 107.832764 102.329041
[L_rear_hand02]
22 102.726799 -1.568258 5.773216 71.484627 71.816643 158.486176 102.900848
23 102.726799 -1.568258 5.773216 71.484581 71.816628 158.486160 102.900848
[L_rear_hand03]
22 104.552910 9.721220 -10.420293 -177.714188 -24.565966 -106.089043 105.519653
23 104.552910 9.721220 -10.420293 -177.714203 -24.565960 -106.089043 105.519653
